<?xml version="1.0" encoding="UTF-8"?>
<svg width="194px" height="80px" viewBox="0 0 194 80" version="1.1" xmlns="http://www.w3.org/2000/svg" xmlns:xlink="http://www.w3.org/1999/xlink">
    <!-- Generator: Sketch 53.2 (72643) - https://sketchapp.com -->
    <title>Forge wordmark</title>
    <desc>Created with Sketch.</desc>
    <g id="Forge-wordmark" stroke="none" stroke-width="1" fill="none" fill-rule="evenodd">
        <path d="M34.0796762,37.1328671 L10.2092032,37.1328671 L10.2092032,56.8356643 L3,56.8356643 L3,4 L36.803153,4 L36.803153,10.9160839 L10.2092032,10.9160839 L10.2092032,30.2167832 L34.0796762,30.2167832 L34.0796762,37.1328671 Z M60.1129101,57.6398601 C48.0975714,57.6398601 41.0485726,48.7132867 41.0485726,36.6503497 C41.0485726,24.5874126 48.0975714,15.8216783 60.1129101,15.8216783 C72.0481466,15.8216783 79.017043,24.5874126 79.017043,36.6503497 C79.017043,48.7132867 72.0481466,57.6398601 60.1129101,57.6398601 Z M60.1129101,22.2552448 C51.5419685,22.2552448 47.7771623,29.0104895 47.7771623,36.6503497 C47.7771623,44.2902098 51.5419685,51.2062937 60.1129101,51.2062937 C68.6037495,51.2062937 72.2884533,44.2902098 72.2884533,36.6503497 C72.2884533,29.0104895 68.6037495,22.2552448 60.1129101,22.2552448 Z M93.7558585,33.1118881 L93.7558585,56.8356643 L87.0272689,56.8356643 L87.0272689,16.6258741 L93.7558585,16.6258741 L93.7558585,23.7027972 C96.078824,18.958042 100.083937,15.5804196 107.933958,16.0629371 L107.933958,22.8181818 C99.1227098,21.9335664 93.7558585,24.5874126 93.7558585,33.1118881 Z M140.054964,53.6188811 L140.054964,49.5979021 C137.491692,54.9055944 132.685556,57.6398601 126.517682,57.6398601 C115.944184,57.6398601 110.657435,48.5524476 110.657435,36.7307692 C110.657435,25.3916084 116.184491,15.8216783 127.318705,15.8216783 C133.16617,15.8216783 137.651896,18.4755245 140.054964,23.7027972 L140.054964,16.6258741 L146.783553,16.6258741 L146.783553,53.2167832 C146.783553,65.0384615 141.256498,73 126.918193,73 C120.189604,73 116.5049,72.1153846 112.659991,70.8286713 L112.659991,64.0734266 C117.065616,65.520979 121.631444,66.486014 126.597784,66.486014 C136.610567,66.486014 140.054964,61.0979021 140.054964,53.6188811 Z M117.386025,36.7307692 C117.386025,46.3811189 121.230933,51.2062937 128.360034,51.2062937 C134.527908,51.2062937 140.054964,47.2657343 140.054964,38.3391608 L140.054964,35.1223776 C140.054964,26.1958042 135.008522,22.2552448 129.161057,22.2552448 C121.391138,22.2552448 117.386025,27.4020979 117.386025,36.7307692 Z M173.377503,22.0944056 C166.088198,22.0944056 162.403494,26.8391608 161.682573,33.8356643 L184.031104,33.8356643 C183.630592,26.3566434 180.266297,22.0944056 173.377503,22.0944056 Z M188.757137,55.2272727 C185.472944,56.9965035 180.426502,57.6398601 176.341287,57.6398601 C161.362164,57.6398601 154.793779,48.9545455 154.793779,36.6503497 C154.793779,24.506993 161.522369,15.8216783 173.697912,15.8216783 C186.03366,15.8216783 191,24.4265734 191,36.6503497 L191,39.7867133 L161.762676,39.7867133 C162.723903,46.6223776 167.129527,51.0454545 176.581594,51.0454545 C181.227524,51.0454545 185.152535,50.1608392 188.757137,48.8741259 L188.757137,55.2272727 Z" id="Forge" fill="#42526E" fill-rule="nonzero"></path>
    </g>
</svg>